<mxfile host="app.diagrams.net" agent="Mozilla/5.0 (Windows NT 10.0; Win64; x64) AppleWebKit/537.36 (KHTML, like Gecko) Chrome/133.0.0.0 Safari/537.36 Edg/133.0.0.0" version="26.0.8">
  <diagram name="第 1 页" id="yRRZaPeO-JIJeqCieerl">
    <mxGraphModel dx="784" dy="1099" grid="1" gridSize="10" guides="1" tooltips="1" connect="1" arrows="1" fold="1" page="1" pageScale="1" pageWidth="827" pageHeight="1169" math="0" shadow="0">
      <root>
        <mxCell id="0" />
        <mxCell id="1" parent="0" />
        <mxCell id="FPOfLXPbV75VCjuFyTgK-1" value="&lt;font style=&quot;font-size: 18px;&quot;&gt;A&lt;/font&gt;" style="rounded=1;whiteSpace=wrap;html=1;" vertex="1" parent="1">
          <mxGeometry x="70" y="110" width="120" height="60" as="geometry" />
        </mxCell>
        <mxCell id="FPOfLXPbV75VCjuFyTgK-2" value="&lt;font style=&quot;font-size: 22px;&quot;&gt;B&lt;/font&gt;" style="rounded=1;whiteSpace=wrap;html=1;" vertex="1" parent="1">
          <mxGeometry x="430" y="110" width="120" height="60" as="geometry" />
        </mxCell>
        <mxCell id="FPOfLXPbV75VCjuFyTgK-3" value="" style="endArrow=classic;html=1;rounded=0;exitX=1;exitY=0.5;exitDx=0;exitDy=0;entryX=0;entryY=0.5;entryDx=0;entryDy=0;" edge="1" parent="1" source="FPOfLXPbV75VCjuFyTgK-1" target="FPOfLXPbV75VCjuFyTgK-2">
          <mxGeometry width="50" height="50" relative="1" as="geometry">
            <mxPoint x="220" y="130" as="sourcePoint" />
            <mxPoint x="400" y="130" as="targetPoint" />
          </mxGeometry>
        </mxCell>
        <mxCell id="FPOfLXPbV75VCjuFyTgK-15" value="sync" style="edgeLabel;html=1;align=center;verticalAlign=middle;resizable=0;points=[];" vertex="1" connectable="0" parent="FPOfLXPbV75VCjuFyTgK-3">
          <mxGeometry x="-0.2519" y="-1" relative="1" as="geometry">
            <mxPoint as="offset" />
          </mxGeometry>
        </mxCell>
        <mxCell id="FPOfLXPbV75VCjuFyTgK-6" value="&lt;font style=&quot;font-size: 18px;&quot;&gt;A&lt;/font&gt;" style="rounded=1;whiteSpace=wrap;html=1;" vertex="1" parent="1">
          <mxGeometry x="70" y="200" width="120" height="60" as="geometry" />
        </mxCell>
        <mxCell id="FPOfLXPbV75VCjuFyTgK-8" value="&lt;font style=&quot;font-size: 22px;&quot;&gt;B&lt;/font&gt;" style="rounded=1;whiteSpace=wrap;html=1;" vertex="1" parent="1">
          <mxGeometry x="430" y="200" width="120" height="60" as="geometry" />
        </mxCell>
        <mxCell id="FPOfLXPbV75VCjuFyTgK-11" value="" style="endArrow=classic;html=1;rounded=0;exitX=0;exitY=0.75;exitDx=0;exitDy=0;entryX=1;entryY=0.25;entryDx=0;entryDy=0;" edge="1" parent="1" source="FPOfLXPbV75VCjuFyTgK-2" target="FPOfLXPbV75VCjuFyTgK-6">
          <mxGeometry width="50" height="50" relative="1" as="geometry">
            <mxPoint x="400" y="130" as="sourcePoint" />
            <mxPoint x="220" y="200" as="targetPoint" />
          </mxGeometry>
        </mxCell>
        <mxCell id="FPOfLXPbV75VCjuFyTgK-16" value="ack" style="edgeLabel;html=1;align=center;verticalAlign=middle;resizable=0;points=[];" vertex="1" connectable="0" parent="FPOfLXPbV75VCjuFyTgK-11">
          <mxGeometry x="0.1989" y="-2" relative="1" as="geometry">
            <mxPoint as="offset" />
          </mxGeometry>
        </mxCell>
        <mxCell id="FPOfLXPbV75VCjuFyTgK-12" value="" style="endArrow=classic;html=1;rounded=0;" edge="1" parent="1" source="FPOfLXPbV75VCjuFyTgK-6" target="FPOfLXPbV75VCjuFyTgK-8">
          <mxGeometry width="50" height="50" relative="1" as="geometry">
            <mxPoint x="220" y="230" as="sourcePoint" />
            <mxPoint x="400" y="230" as="targetPoint" />
          </mxGeometry>
        </mxCell>
        <mxCell id="FPOfLXPbV75VCjuFyTgK-18" value="ack" style="edgeLabel;html=1;align=center;verticalAlign=middle;resizable=0;points=[];" vertex="1" connectable="0" parent="FPOfLXPbV75VCjuFyTgK-12">
          <mxGeometry x="0.1926" y="1" relative="1" as="geometry">
            <mxPoint as="offset" />
          </mxGeometry>
        </mxCell>
        <mxCell id="FPOfLXPbV75VCjuFyTgK-13" value="" style="endArrow=classic;html=1;rounded=0;entryX=1;entryY=0.5;entryDx=0;entryDy=0;exitX=0;exitY=1;exitDx=0;exitDy=0;" edge="1" parent="1" source="FPOfLXPbV75VCjuFyTgK-2" target="FPOfLXPbV75VCjuFyTgK-6">
          <mxGeometry width="50" height="50" relative="1" as="geometry">
            <mxPoint x="400" y="160" as="sourcePoint" />
            <mxPoint x="220" y="230" as="targetPoint" />
          </mxGeometry>
        </mxCell>
        <mxCell id="FPOfLXPbV75VCjuFyTgK-17" value="sync" style="edgeLabel;html=1;align=center;verticalAlign=middle;resizable=0;points=[];" vertex="1" connectable="0" parent="FPOfLXPbV75VCjuFyTgK-13">
          <mxGeometry x="0.0906" y="4" relative="1" as="geometry">
            <mxPoint as="offset" />
          </mxGeometry>
        </mxCell>
        <mxCell id="FPOfLXPbV75VCjuFyTgK-14" value="&lt;font style=&quot;font-size: 18px;&quot;&gt;所谓的三次握手，其实是双向确认&lt;/font&gt;&lt;div&gt;&lt;font style=&quot;font-size: 18px;&quot;&gt;A给B发的消息，要受到B的回包才能确认发送成功对吧。&lt;/font&gt;&lt;/div&gt;&lt;div&gt;&lt;font style=&quot;font-size: 18px;&quot;&gt;那B给A的消息，不也得收到A的回包才能确认发送成功吗，&lt;/font&gt;&lt;/div&gt;&lt;div&gt;&lt;font style=&quot;font-size: 18px;&quot;&gt;只不过第一次B给A回包的时候，顺便携带了B给A发送的数据，即B给A的回包和发送的数据合为一次了，最终表现为三次握手&lt;/font&gt;&lt;/div&gt;" style="text;html=1;align=center;verticalAlign=middle;whiteSpace=wrap;rounded=0;" vertex="1" parent="1">
          <mxGeometry x="60" y="270" width="520" height="160" as="geometry" />
        </mxCell>
        <mxCell id="FPOfLXPbV75VCjuFyTgK-19" value="&lt;font style=&quot;font-size: 18px;&quot;&gt;A&lt;/font&gt;" style="rounded=1;whiteSpace=wrap;html=1;" vertex="1" parent="1">
          <mxGeometry x="70" y="520" width="120" height="60" as="geometry" />
        </mxCell>
        <mxCell id="FPOfLXPbV75VCjuFyTgK-20" value="&lt;font style=&quot;font-size: 22px;&quot;&gt;B&lt;/font&gt;" style="rounded=1;whiteSpace=wrap;html=1;" vertex="1" parent="1">
          <mxGeometry x="430" y="520" width="120" height="60" as="geometry" />
        </mxCell>
        <mxCell id="FPOfLXPbV75VCjuFyTgK-21" value="" style="endArrow=classic;html=1;rounded=0;exitX=1;exitY=0.5;exitDx=0;exitDy=0;entryX=0;entryY=0.5;entryDx=0;entryDy=0;" edge="1" parent="1" source="FPOfLXPbV75VCjuFyTgK-19" target="FPOfLXPbV75VCjuFyTgK-20">
          <mxGeometry width="50" height="50" relative="1" as="geometry">
            <mxPoint x="220" y="540" as="sourcePoint" />
            <mxPoint x="400" y="540" as="targetPoint" />
          </mxGeometry>
        </mxCell>
        <mxCell id="FPOfLXPbV75VCjuFyTgK-22" value="sync" style="edgeLabel;html=1;align=center;verticalAlign=middle;resizable=0;points=[];" vertex="1" connectable="0" parent="FPOfLXPbV75VCjuFyTgK-21">
          <mxGeometry x="-0.2519" y="-1" relative="1" as="geometry">
            <mxPoint as="offset" />
          </mxGeometry>
        </mxCell>
        <mxCell id="FPOfLXPbV75VCjuFyTgK-23" value="&lt;font style=&quot;font-size: 18px;&quot;&gt;A&lt;/font&gt;" style="rounded=1;whiteSpace=wrap;html=1;" vertex="1" parent="1">
          <mxGeometry x="70" y="610" width="120" height="60" as="geometry" />
        </mxCell>
        <mxCell id="FPOfLXPbV75VCjuFyTgK-25" value="" style="endArrow=classic;html=1;rounded=0;exitX=0;exitY=0.75;exitDx=0;exitDy=0;entryX=1;entryY=0.25;entryDx=0;entryDy=0;" edge="1" parent="1" source="FPOfLXPbV75VCjuFyTgK-20" target="FPOfLXPbV75VCjuFyTgK-23">
          <mxGeometry width="50" height="50" relative="1" as="geometry">
            <mxPoint x="400" y="540" as="sourcePoint" />
            <mxPoint x="220" y="610" as="targetPoint" />
          </mxGeometry>
        </mxCell>
        <mxCell id="FPOfLXPbV75VCjuFyTgK-26" value="ack" style="edgeLabel;html=1;align=center;verticalAlign=middle;resizable=0;points=[];" vertex="1" connectable="0" parent="FPOfLXPbV75VCjuFyTgK-25">
          <mxGeometry x="0.1989" y="-2" relative="1" as="geometry">
            <mxPoint as="offset" />
          </mxGeometry>
        </mxCell>
        <mxCell id="FPOfLXPbV75VCjuFyTgK-31" value="&lt;font style=&quot;font-size: 18px;&quot;&gt;A&lt;/font&gt;" style="rounded=1;whiteSpace=wrap;html=1;" vertex="1" parent="1">
          <mxGeometry x="70" y="770" width="120" height="60" as="geometry" />
        </mxCell>
        <mxCell id="FPOfLXPbV75VCjuFyTgK-32" value="&lt;font style=&quot;font-size: 22px;&quot;&gt;B&lt;/font&gt;" style="rounded=1;whiteSpace=wrap;html=1;" vertex="1" parent="1">
          <mxGeometry x="440" y="680" width="120" height="60" as="geometry" />
        </mxCell>
        <mxCell id="FPOfLXPbV75VCjuFyTgK-37" value="&lt;font style=&quot;font-size: 22px;&quot;&gt;B&lt;/font&gt;" style="rounded=1;whiteSpace=wrap;html=1;" vertex="1" parent="1">
          <mxGeometry x="440" y="770" width="120" height="60" as="geometry" />
        </mxCell>
        <mxCell id="FPOfLXPbV75VCjuFyTgK-38" value="" style="endArrow=classic;html=1;rounded=0;entryX=1;entryY=0.5;entryDx=0;entryDy=0;exitX=0;exitY=0.5;exitDx=0;exitDy=0;" edge="1" parent="1" source="FPOfLXPbV75VCjuFyTgK-32" target="FPOfLXPbV75VCjuFyTgK-31">
          <mxGeometry width="50" height="50" relative="1" as="geometry">
            <mxPoint x="330" y="790" as="sourcePoint" />
            <mxPoint x="380" y="740" as="targetPoint" />
          </mxGeometry>
        </mxCell>
        <mxCell id="FPOfLXPbV75VCjuFyTgK-40" value="sync" style="edgeLabel;html=1;align=center;verticalAlign=middle;resizable=0;points=[];" vertex="1" connectable="0" parent="FPOfLXPbV75VCjuFyTgK-38">
          <mxGeometry x="-0.1867" relative="1" as="geometry">
            <mxPoint as="offset" />
          </mxGeometry>
        </mxCell>
        <mxCell id="FPOfLXPbV75VCjuFyTgK-39" value="" style="endArrow=classic;html=1;rounded=0;entryX=0;entryY=0.5;entryDx=0;entryDy=0;exitX=1;exitY=0.5;exitDx=0;exitDy=0;" edge="1" parent="1" source="FPOfLXPbV75VCjuFyTgK-31" target="FPOfLXPbV75VCjuFyTgK-37">
          <mxGeometry width="50" height="50" relative="1" as="geometry">
            <mxPoint x="240" y="850" as="sourcePoint" />
            <mxPoint x="290" y="800" as="targetPoint" />
          </mxGeometry>
        </mxCell>
        <mxCell id="FPOfLXPbV75VCjuFyTgK-41" value="ack" style="edgeLabel;html=1;align=center;verticalAlign=middle;resizable=0;points=[];" vertex="1" connectable="0" parent="FPOfLXPbV75VCjuFyTgK-39">
          <mxGeometry x="0.1794" relative="1" as="geometry">
            <mxPoint as="offset" />
          </mxGeometry>
        </mxCell>
        <mxCell id="FPOfLXPbV75VCjuFyTgK-42" value="" style="shape=flexArrow;endArrow=classic;html=1;rounded=0;" edge="1" parent="1">
          <mxGeometry width="50" height="50" relative="1" as="geometry">
            <mxPoint x="330" y="610" as="sourcePoint" />
            <mxPoint x="330" y="730" as="targetPoint" />
          </mxGeometry>
        </mxCell>
        <mxCell id="FPOfLXPbV75VCjuFyTgK-43" value="&lt;font style=&quot;font-size: 18px;&quot;&gt;处理剩余数据的收发&lt;/font&gt;" style="edgeLabel;html=1;align=center;verticalAlign=middle;resizable=0;points=[];" vertex="1" connectable="0" parent="FPOfLXPbV75VCjuFyTgK-42">
          <mxGeometry x="0.0222" y="-3" relative="1" as="geometry">
            <mxPoint x="3" as="offset" />
          </mxGeometry>
        </mxCell>
        <mxCell id="FPOfLXPbV75VCjuFyTgK-44" value="&lt;font style=&quot;font-size: 18px;&quot;&gt;所谓的四次挥手，其实和三次握手是一样一样的，只不过，这次B没有将给A的回包和给A发送的数据合在一起发，因为这之间还需要处理以下剩余数据的收发&lt;/font&gt;" style="text;html=1;align=center;verticalAlign=middle;whiteSpace=wrap;rounded=0;" vertex="1" parent="1">
          <mxGeometry x="90" y="840" width="460" height="110" as="geometry" />
        </mxCell>
      </root>
    </mxGraphModel>
  </diagram>
</mxfile>
